<svg xmlns="http://www.w3.org/2000/svg" xmlns:xlink="http://www.w3.org/1999/xlink" width="500" zoomAndPan="magnify" viewBox="0 0 375 374.999991" height="500" preserveAspectRatio="xMidYMid meet" version="1.0"><defs><g/><clipPath id="dce252bdeb"><path d="M 0 161.097656 L 375 161.097656 L 375 213.933594 L 0 213.933594 Z M 0 161.097656 " clip-rule="nonzero"/></clipPath></defs><g fill="#393834" fill-opacity="1"><g transform="translate(69.306795, 267.575634)"><g><path d="M 79.484375 0.875 C 77.816406 0.289062 74.238281 0 68.75 0 L 23.53125 0 C 19.769531 0 16.769531 -0.59375 14.53125 -1.78125 C 12.289062 -2.976562 11.171875 -5.164062 11.171875 -8.34375 C 11.171875 -10.65625 11.710938 -12.5 12.796875 -13.875 C 15.679688 -13.15625 18.332031 -12.796875 20.75 -12.796875 C 23.175781 -12.796875 25.09375 -13.046875 26.5 -13.546875 C 27.914062 -14.054688 29.128906 -14.960938 30.140625 -16.265625 C 32.378906 -19.015625 33.570312 -23.53125 33.71875 -29.8125 L 33.71875 -140.625 C 33.71875 -146.34375 32.128906 -149.921875 28.953125 -151.359375 C 27.941406 -151.867188 26.566406 -152.300781 24.828125 -152.65625 C 23.097656 -153.019531 21.378906 -153.398438 19.671875 -153.796875 C 17.972656 -154.203125 16.546875 -154.691406 15.390625 -155.265625 C 13.078125 -156.421875 11.921875 -158.375 11.921875 -161.125 C 11.921875 -163.800781 12.460938 -165.789062 13.546875 -167.09375 C 15.210938 -166.507812 18.789062 -166.21875 24.28125 -166.21875 L 68.421875 -166.21875 C 72.179688 -166.21875 75.195312 -165.617188 77.46875 -164.421875 C 79.75 -163.234375 80.890625 -161.050781 80.890625 -157.875 C 80.890625 -155.488281 80.3125 -153.644531 79.15625 -152.34375 C 76.40625 -153.0625 73.40625 -153.421875 70.15625 -153.421875 C 63.144531 -153.421875 59.53125 -147.710938 59.3125 -136.296875 L 59.3125 -25.59375 C 59.3125 -19.875 60.898438 -16.257812 64.078125 -14.75 C 65.085938 -14.3125 66.457031 -13.910156 68.1875 -13.546875 C 69.925781 -13.191406 71.644531 -12.8125 73.34375 -12.40625 C 75.050781 -12.007812 76.484375 -11.523438 77.640625 -10.953125 C 80.023438 -9.722656 81.21875 -7.769531 81.21875 -5.09375 C 81.21875 -2.5625 80.640625 -0.570312 79.484375 0.875 Z M 79.484375 0.875 "/></g></g></g><g fill="#393834" fill-opacity="1"><g transform="translate(162.335546, 267.575634)"><g><path d="M 105.28125 -120.46875 C 105.28125 -137.019531 99.390625 -147.390625 87.609375 -151.578125 C 83.554688 -153.023438 78.820312 -153.75 73.40625 -153.75 C 67.988281 -153.75 63.328125 -153.132812 59.421875 -151.90625 C 55.515625 -150.675781 52.257812 -149.015625 49.65625 -146.921875 C 44.382812 -142.660156 41.75 -137.019531 41.75 -130 C 41.75 -119.375 49.554688 -110.304688 65.171875 -102.796875 L 78.71875 -96.390625 C 85.300781 -93.359375 91.644531 -90.269531 97.75 -87.125 C 103.851562 -83.976562 109.253906 -80.378906 113.953125 -76.328125 C 124.296875 -67.515625 129.46875 -56.601562 129.46875 -43.59375 C 129.46875 -29.632812 123.394531 -18.390625 111.25 -9.859375 C 99.894531 -1.910156 85.65625 2.0625 68.53125 2.0625 C 54.9375 2.0625 42.9375 -0.0703125 32.53125 -4.34375 C 24.863281 -7.375 19.40625 -11.671875 16.15625 -17.234375 C 14.488281 -20.054688 13.65625 -23.492188 13.65625 -27.546875 C 13.65625 -35.640625 15.679688 -43.191406 19.734375 -50.203125 C 21.109375 -51.867188 22.988281 -52.703125 25.375 -52.703125 C 30 -52.703125 32.671875 -51.328125 33.390625 -48.578125 C 34.335938 -36.066406 38.1875 -26.957031 44.9375 -21.25 C 51.695312 -15.539062 61.148438 -12.6875 73.296875 -12.6875 C 87.242188 -12.6875 96.601562 -17.238281 101.375 -26.34375 C 103.039062 -29.53125 103.875 -33.269531 103.875 -37.5625 C 103.875 -41.863281 102.71875 -45.710938 100.40625 -49.109375 C 98.09375 -52.515625 95.019531 -55.660156 91.1875 -58.546875 C 85.332031 -62.890625 77.578125 -67.082031 67.921875 -71.125 C 58.273438 -75.175781 50.757812 -78.71875 45.375 -81.75 C 39.988281 -84.789062 35.238281 -88.332031 31.125 -92.375 C 22.15625 -101.195312 17.671875 -112.078125 17.671875 -125.015625 C 17.671875 -138.242188 23.347656 -148.832031 34.703125 -156.78125 C 45.609375 -164.445312 59.703125 -168.28125 76.984375 -168.28125 C 98.890625 -168.28125 113.203125 -163.765625 119.921875 -154.734375 C 122.378906 -151.472656 123.609375 -147.203125 123.609375 -141.921875 C 123.609375 -136.648438 123.117188 -132.0625 122.140625 -128.15625 C 121.171875 -124.257812 120.210938 -121.734375 119.265625 -120.578125 C 117.679688 -118.617188 114.953125 -117.640625 111.078125 -117.640625 C 107.210938 -117.640625 105.28125 -118.582031 105.28125 -120.46875 Z M 105.28125 -120.46875 "/></g></g></g><g clip-path="url(#dce252bdeb)"><path fill="#faf9f8" d="M -88.507812 161.097656 L 463.800781 161.097656 L 463.800781 213.933594 L -88.507812 213.933594 Z M -88.507812 161.097656 " fill-opacity="1" fill-rule="nonzero"/></g><g fill="#393834" fill-opacity="1"><g transform="translate(49.684775, 198.008359)"><g><path d="M 11.265625 0.125 C 11.035156 0.0390625 10.53125 0 9.75 0 L 3.34375 0 C 2.800781 0 2.367188 -0.0820312 2.046875 -0.25 C 1.734375 -0.414062 1.578125 -0.726562 1.578125 -1.1875 C 1.578125 -1.507812 1.65625 -1.769531 1.8125 -1.96875 C 2.21875 -1.863281 2.59375 -1.8125 2.9375 -1.8125 C 3.28125 -1.8125 3.550781 -1.847656 3.75 -1.921875 C 3.957031 -1.992188 4.132812 -2.125 4.28125 -2.3125 C 4.59375 -2.695312 4.757812 -3.335938 4.78125 -4.234375 L 4.78125 -19.9375 C 4.78125 -20.75 4.554688 -21.257812 4.109375 -21.46875 C 3.960938 -21.53125 3.765625 -21.585938 3.515625 -21.640625 C 3.273438 -21.691406 3.03125 -21.742188 2.78125 -21.796875 C 2.539062 -21.859375 2.34375 -21.929688 2.1875 -22.015625 C 1.851562 -22.179688 1.6875 -22.457031 1.6875 -22.84375 C 1.6875 -23.21875 1.765625 -23.5 1.921875 -23.6875 C 2.160156 -23.601562 2.664062 -23.5625 3.4375 -23.5625 L 9.703125 -23.5625 C 10.234375 -23.5625 10.660156 -23.476562 10.984375 -23.3125 C 11.304688 -23.144531 11.46875 -22.835938 11.46875 -22.390625 C 11.46875 -22.046875 11.382812 -21.78125 11.21875 -21.59375 C 10.832031 -21.695312 10.410156 -21.75 9.953125 -21.75 C 8.953125 -21.75 8.4375 -20.941406 8.40625 -19.328125 L 8.40625 -3.625 C 8.40625 -2.8125 8.628906 -2.300781 9.078125 -2.09375 C 9.222656 -2.03125 9.414062 -1.972656 9.65625 -1.921875 C 9.90625 -1.867188 10.148438 -1.8125 10.390625 -1.75 C 10.640625 -1.695312 10.84375 -1.628906 11 -1.546875 C 11.34375 -1.378906 11.515625 -1.101562 11.515625 -0.71875 C 11.515625 -0.363281 11.429688 -0.0820312 11.265625 0.125 Z M 11.265625 0.125 "/></g></g></g><g fill="#393834" fill-opacity="1"><g transform="translate(66.022321, 198.008359)"><g><path d="M 6.828125 4.703125 C 5.921875 4.703125 5.46875 4.257812 5.46875 3.375 C 5.46875 2.46875 6.304688 1.78125 7.984375 1.3125 C 12.453125 0.0820312 15.644531 -1.429688 17.5625 -3.234375 C 19.644531 -5.203125 20.6875 -7.910156 20.6875 -11.359375 C 20.6875 -13.222656 20.515625 -14.6875 20.171875 -15.75 C 19.828125 -16.820312 19.460938 -17.675781 19.078125 -18.3125 C 18.703125 -18.957031 18.226562 -19.515625 17.65625 -19.984375 C 16.457031 -20.972656 14.941406 -21.46875 13.109375 -21.46875 C 9.535156 -21.46875 7.226562 -19.644531 6.1875 -16 C 5.832031 -14.757812 5.65625 -13.289062 5.65625 -11.59375 C 5.65625 -7.59375 6.691406 -4.96875 8.765625 -3.71875 C 9.265625 -3.414062 9.859375 -3.210938 10.546875 -3.109375 C 10.765625 -3.046875 10.921875 -2.894531 11.015625 -2.65625 C 11.203125 -2.238281 11.234375 -1.960938 11.109375 -1.828125 C 10.859375 -1.554688 10.332031 -1.429688 9.53125 -1.453125 C 8.738281 -1.472656 7.992188 -1.601562 7.296875 -1.84375 C 6.597656 -2.082031 5.957031 -2.410156 5.375 -2.828125 C 4.789062 -3.242188 4.273438 -3.734375 3.828125 -4.296875 C 3.378906 -4.867188 2.992188 -5.5 2.671875 -6.1875 C 2.023438 -7.570312 1.703125 -9.054688 1.703125 -10.640625 C 1.703125 -12.234375 1.867188 -13.644531 2.203125 -14.875 C 2.535156 -16.113281 2.988281 -17.21875 3.5625 -18.1875 C 4.144531 -19.15625 4.828125 -19.992188 5.609375 -20.703125 C 6.398438 -21.421875 7.242188 -22.007812 8.140625 -22.46875 C 9.921875 -23.394531 11.691406 -23.859375 13.453125 -23.859375 C 15.210938 -23.859375 16.742188 -23.597656 18.046875 -23.078125 C 19.359375 -22.566406 20.5 -21.820312 21.46875 -20.84375 C 23.550781 -18.738281 24.59375 -15.960938 24.59375 -12.515625 C 24.59375 -7.492188 22.726562 -3.671875 19 -1.046875 C 17.457031 0.0234375 15.617188 0.882812 13.484375 1.53125 L 14.9375 2.125 C 16.789062 2.84375 18.21875 3.203125 19.21875 3.203125 C 21.5625 3.203125 23.191406 2.625 24.109375 1.46875 C 24.453125 1.445312 24.710938 1.5625 24.890625 1.8125 C 25.066406 2.070312 25.15625 2.40625 25.15625 2.8125 C 25.15625 3.21875 25.015625 3.65625 24.734375 4.125 C 24.460938 4.59375 24.070312 5 23.5625 5.34375 C 22.476562 6.113281 21.128906 6.5 19.515625 6.5 C 18.484375 6.5 17.472656 6.3125 16.484375 5.9375 C 15.503906 5.5625 14.734375 5.242188 14.171875 4.984375 L 12.515625 4.265625 C 11.296875 3.734375 10.414062 3.46875 9.875 3.46875 C 9.332031 3.46875 8.90625 3.503906 8.59375 3.578125 C 8.289062 3.648438 8.035156 3.742188 7.828125 3.859375 C 7.546875 4.003906 7.210938 4.285156 6.828125 4.703125 Z M 6.828125 4.703125 "/></g></g></g><g fill="#393834" fill-opacity="1"><g transform="translate(95.470585, 198.008359)"><g><path d="M 11.1875 0.125 C 10.957031 0.0390625 10.457031 0 9.6875 0 L 3.40625 0 C 2.875 0 2.445312 -0.0820312 2.125 -0.25 C 1.8125 -0.414062 1.65625 -0.726562 1.65625 -1.1875 C 1.65625 -1.507812 1.734375 -1.769531 1.890625 -1.96875 C 2.273438 -1.863281 2.644531 -1.8125 3 -1.8125 C 3.363281 -1.8125 3.648438 -1.847656 3.859375 -1.921875 C 4.066406 -2.003906 4.242188 -2.144531 4.390625 -2.34375 C 4.703125 -2.75 4.859375 -3.425781 4.859375 -4.375 L 4.859375 -20.109375 C 4.828125 -20.828125 4.59375 -21.28125 4.15625 -21.46875 C 4.019531 -21.53125 3.835938 -21.585938 3.609375 -21.640625 C 3.378906 -21.691406 3.148438 -21.742188 2.921875 -21.796875 C 2.703125 -21.859375 2.519531 -21.929688 2.375 -22.015625 C 2.0625 -22.179688 1.90625 -22.394531 1.90625 -22.65625 C 1.90625 -23.132812 1.988281 -23.476562 2.15625 -23.6875 C 2.382812 -23.601562 2.890625 -23.5625 3.671875 -23.5625 L 5.671875 -23.5625 L 11.0625 -23.71875 L 11.734375 -23.734375 C 14.890625 -23.734375 17.25 -23.171875 18.8125 -22.046875 C 20.382812 -20.929688 21.171875 -19.351562 21.171875 -17.3125 C 21.171875 -15.78125 20.671875 -14.375 19.671875 -13.09375 C 18.566406 -11.675781 17.039062 -10.710938 15.09375 -10.203125 C 15.625 -9.835938 16.226562 -9.160156 16.90625 -8.171875 L 18.546875 -5.796875 C 20.066406 -3.566406 21.332031 -2.453125 22.34375 -2.453125 C 22.71875 -2.453125 23.003906 -2.488281 23.203125 -2.5625 L 23.578125 -2.71875 C 23.660156 -2.75 23.753906 -2.765625 23.859375 -2.765625 C 23.960938 -2.765625 24.066406 -2.6875 24.171875 -2.53125 C 24.285156 -2.375 24.34375 -2.191406 24.34375 -1.984375 C 24.34375 -1.773438 24.253906 -1.53125 24.078125 -1.25 C 23.910156 -0.96875 23.671875 -0.710938 23.359375 -0.484375 C 22.640625 0.0351562 21.851562 0.296875 21 0.296875 C 20.144531 0.296875 19.441406 0.15625 18.890625 -0.125 C 18.347656 -0.414062 17.847656 -0.796875 17.390625 -1.265625 C 16.929688 -1.734375 16.515625 -2.265625 16.140625 -2.859375 C 15.773438 -3.453125 15.425781 -4.0625 15.09375 -4.6875 L 14.1875 -6.515625 C 13.539062 -7.847656 13.023438 -8.707031 12.640625 -9.09375 C 12.253906 -9.476562 11.90625 -9.671875 11.59375 -9.671875 L 10.03125 -9.671875 C 9.78125 -9.671875 9.65625 -9.851562 9.65625 -10.21875 C 9.65625 -10.726562 9.847656 -11.128906 10.234375 -11.421875 C 10.367188 -11.515625 10.769531 -11.566406 11.4375 -11.578125 C 12.101562 -11.597656 12.851562 -11.738281 13.6875 -12 C 14.519531 -12.269531 15.207031 -12.632812 15.75 -13.09375 C 16.8125 -14.007812 17.34375 -15.289062 17.34375 -16.9375 C 17.34375 -18.320312 16.878906 -19.457031 15.953125 -20.34375 C 14.910156 -21.332031 13.457031 -21.835938 11.59375 -21.859375 C 10.363281 -21.859375 9.539062 -21.675781 9.125 -21.3125 C 8.71875 -20.957031 8.503906 -20.296875 8.484375 -19.328125 L 8.484375 -3.625 C 8.484375 -2.8125 8.707031 -2.300781 9.15625 -2.09375 C 9.300781 -2.03125 9.488281 -1.972656 9.71875 -1.921875 C 9.957031 -1.867188 10.1875 -1.8125 10.40625 -1.75 C 10.632812 -1.695312 10.820312 -1.628906 10.96875 -1.546875 C 11.28125 -1.390625 11.4375 -1.171875 11.4375 -0.890625 C 11.4375 -0.421875 11.351562 -0.0820312 11.1875 0.125 Z M 11.1875 0.125 "/></g></g></g><g fill="#393834" fill-opacity="1"><g transform="translate(122.982209, 198.008359)"><g><path d="M 16.296875 -1.8125 C 16.722656 -1.738281 17.046875 -1.703125 17.265625 -1.703125 C 17.484375 -1.703125 17.695312 -1.722656 17.90625 -1.765625 C 18.113281 -1.816406 18.300781 -1.894531 18.46875 -2 C 18.832031 -2.226562 19.015625 -2.582031 19.015625 -3.0625 C 19.015625 -3.457031 18.890625 -3.898438 18.640625 -4.390625 L 17.203125 -7.984375 L 7.46875 -7.984375 L 5.75 -3.609375 C 5.582031 -3.210938 5.5 -2.921875 5.5 -2.734375 C 5.5 -2.554688 5.523438 -2.425781 5.578125 -2.34375 C 5.640625 -2.257812 5.726562 -2.1875 5.84375 -2.125 C 5.96875 -2.0625 6.113281 -2.007812 6.28125 -1.96875 L 6.921875 -1.796875 C 7.597656 -1.679688 8.03125 -1.578125 8.21875 -1.484375 C 8.625 -1.296875 8.828125 -1.007812 8.828125 -0.625 C 8.828125 -0.351562 8.75 -0.117188 8.59375 0.078125 C 8.394531 0.0234375 8.21875 0 8.0625 0 L 1.796875 0 C 0.429688 0 -0.25 -0.375 -0.25 -1.125 C -0.25 -1.46875 -0.171875 -1.75 -0.015625 -1.96875 C 0.359375 -1.863281 0.675781 -1.8125 0.9375 -1.8125 C 1.207031 -1.8125 1.429688 -1.851562 1.609375 -1.9375 C 1.785156 -2.019531 1.957031 -2.160156 2.125 -2.359375 C 2.394531 -2.691406 2.71875 -3.363281 3.09375 -4.375 L 10.6875 -22.765625 C 10.894531 -23.253906 11.503906 -23.59375 12.515625 -23.78125 C 12.785156 -23.832031 13.078125 -23.859375 13.390625 -23.859375 C 14.015625 -23.859375 14.398438 -23.691406 14.546875 -23.359375 L 16.078125 -19.515625 C 19.035156 -12.523438 20.75 -8.441406 21.21875 -7.265625 L 22.59375 -3.640625 C 22.875 -2.847656 23.101562 -2.359375 23.28125 -2.171875 C 23.46875 -1.992188 23.671875 -1.867188 23.890625 -1.796875 C 24.109375 -1.722656 24.332031 -1.660156 24.5625 -1.609375 C 24.789062 -1.566406 24.992188 -1.507812 25.171875 -1.4375 C 25.554688 -1.269531 25.75 -1.003906 25.75 -0.640625 C 25.75 -0.367188 25.671875 -0.132812 25.515625 0.0625 C 25.328125 0.0078125 25.15625 -0.015625 25 -0.015625 L 17.65625 -0.015625 C 17.132812 -0.015625 16.726562 -0.078125 16.4375 -0.203125 C 16.144531 -0.335938 16 -0.535156 16 -0.796875 C 16 -1.253906 16.097656 -1.59375 16.296875 -1.8125 Z M 16.3125 -10.15625 L 12.28125 -20.125 L 8.328125 -10.15625 Z M 16.3125 -10.15625 "/></g></g></g><g fill="#393834" fill-opacity="1"><g transform="translate(151.615861, 198.008359)"><g/></g></g><g fill="#393834" fill-opacity="1"><g transform="translate(165.832326, 198.008359)"><g><path d="M 14.921875 -17.078125 C 14.921875 -19.421875 14.085938 -20.890625 12.421875 -21.484375 C 11.847656 -21.691406 11.175781 -21.796875 10.40625 -21.796875 C 9.632812 -21.796875 8.972656 -21.707031 8.421875 -21.53125 C 7.867188 -21.363281 7.410156 -21.128906 7.046875 -20.828125 C 6.296875 -20.222656 5.921875 -19.425781 5.921875 -18.4375 C 5.921875 -16.925781 7.023438 -15.640625 9.234375 -14.578125 L 11.15625 -13.671875 C 12.09375 -13.234375 12.992188 -12.789062 13.859375 -12.34375 C 14.722656 -11.90625 15.488281 -11.398438 16.15625 -10.828125 C 17.625 -9.578125 18.359375 -8.03125 18.359375 -6.1875 C 18.359375 -4.207031 17.492188 -2.613281 15.765625 -1.40625 C 14.160156 -0.269531 12.144531 0.296875 9.71875 0.296875 C 7.789062 0.296875 6.085938 -0.00390625 4.609375 -0.609375 C 3.523438 -1.046875 2.753906 -1.65625 2.296875 -2.4375 C 2.054688 -2.84375 1.9375 -3.332031 1.9375 -3.90625 C 1.9375 -5.050781 2.222656 -6.125 2.796875 -7.125 C 2.992188 -7.351562 3.257812 -7.46875 3.59375 -7.46875 C 4.25 -7.46875 4.628906 -7.273438 4.734375 -6.890625 C 4.867188 -5.117188 5.414062 -3.828125 6.375 -3.015625 C 7.332031 -2.203125 8.671875 -1.796875 10.390625 -1.796875 C 12.367188 -1.796875 13.695312 -2.441406 14.375 -3.734375 C 14.613281 -4.179688 14.734375 -4.707031 14.734375 -5.3125 C 14.734375 -5.925781 14.566406 -6.472656 14.234375 -6.953125 C 13.910156 -7.441406 13.472656 -7.890625 12.921875 -8.296875 C 12.097656 -8.910156 11 -9.503906 9.625 -10.078125 C 8.257812 -10.660156 7.191406 -11.164062 6.421875 -11.59375 C 5.660156 -12.019531 4.988281 -12.519531 4.40625 -13.09375 C 3.132812 -14.34375 2.5 -15.882812 2.5 -17.71875 C 2.5 -19.59375 3.304688 -21.097656 4.921875 -22.234375 C 6.460938 -23.316406 8.460938 -23.859375 10.921875 -23.859375 C 14.023438 -23.859375 16.050781 -23.21875 17 -21.9375 C 17.351562 -21.476562 17.53125 -20.875 17.53125 -20.125 C 17.53125 -19.375 17.457031 -18.722656 17.3125 -18.171875 C 17.175781 -17.617188 17.039062 -17.257812 16.90625 -17.09375 C 16.6875 -16.820312 16.300781 -16.6875 15.75 -16.6875 C 15.195312 -16.6875 14.921875 -16.816406 14.921875 -17.078125 Z M 14.921875 -17.078125 "/></g></g></g><g fill="#393834" fill-opacity="1"><g transform="translate(189.301608, 198.008359)"><g><path d="M 23.3125 -21.765625 C 22.53125 -21.765625 22.125 -20.957031 22.09375 -19.34375 L 22.09375 -10.109375 C 22.09375 -6.734375 21.253906 -4.15625 19.578125 -2.375 C 17.941406 -0.59375 15.601562 0.296875 12.5625 0.296875 C 9.976562 0.296875 7.859375 -0.351562 6.203125 -1.65625 C 4.117188 -3.289062 3.078125 -6 3.078125 -9.78125 L 3.078125 -20.359375 C 3.066406 -20.796875 3.015625 -21.097656 2.921875 -21.265625 C 2.835938 -21.441406 2.640625 -21.5625 2.328125 -21.625 C 2.023438 -21.6875 1.753906 -21.742188 1.515625 -21.796875 C 1.273438 -21.859375 1.070312 -21.929688 0.90625 -22.015625 C 0.582031 -22.179688 0.421875 -22.457031 0.421875 -22.84375 C 0.421875 -23.195312 0.5 -23.476562 0.65625 -23.6875 C 0.894531 -23.601562 1.40625 -23.5625 2.1875 -23.5625 L 8.140625 -23.5625 C 9.316406 -23.5625 9.90625 -23.171875 9.90625 -22.390625 C 9.90625 -22.035156 9.828125 -21.769531 9.671875 -21.59375 C 9.285156 -21.695312 8.925781 -21.75 8.59375 -21.75 C 8.269531 -21.75 8.003906 -21.707031 7.796875 -21.625 C 7.597656 -21.550781 7.414062 -21.421875 7.25 -21.234375 C 6.882812 -20.785156 6.703125 -20.101562 6.703125 -19.1875 L 6.703125 -10.859375 C 6.703125 -7.691406 7.335938 -5.414062 8.609375 -4.03125 C 9.585938 -2.96875 10.953125 -2.4375 12.703125 -2.4375 C 17.109375 -2.4375 19.3125 -5.1875 19.3125 -10.6875 L 19.3125 -19.9375 C 19.3125 -20.75 19.082031 -21.257812 18.625 -21.46875 C 18.488281 -21.53125 18.289062 -21.585938 18.03125 -21.640625 C 17.78125 -21.691406 17.535156 -21.742188 17.296875 -21.796875 C 17.054688 -21.859375 16.859375 -21.929688 16.703125 -22.015625 C 16.367188 -22.179688 16.203125 -22.457031 16.203125 -22.84375 C 16.203125 -23.21875 16.285156 -23.5 16.453125 -23.6875 C 16.679688 -23.601562 17.1875 -23.5625 17.96875 -23.5625 L 23.078125 -23.5625 C 23.597656 -23.5625 24.019531 -23.476562 24.34375 -23.3125 C 24.664062 -23.15625 24.828125 -22.851562 24.828125 -22.40625 C 24.828125 -22.050781 24.75 -21.785156 24.59375 -21.609375 C 24.1875 -21.710938 23.757812 -21.765625 23.3125 -21.765625 Z M 23.3125 -21.765625 "/></g></g></g><g fill="#393834" fill-opacity="1"><g transform="translate(217.551007, 198.008359)"><g><path d="M 20.875 -4.78125 C 20.875 -2.476562 20.566406 -0.882812 19.953125 0 L 3.1875 0 C 2.375 0 1.8125 -0.203125 1.5 -0.609375 C 1.40625 -0.753906 1.359375 -0.914062 1.359375 -1.09375 C 1.359375 -1.476562 1.4375 -1.773438 1.59375 -1.984375 C 1.945312 -1.878906 2.40625 -1.828125 2.96875 -1.828125 C 4.226562 -1.828125 4.859375 -2.601562 4.859375 -4.15625 L 4.859375 -19.9375 C 4.859375 -20.644531 4.5625 -21.125 3.96875 -21.375 C 3.789062 -21.445312 3.578125 -21.519531 3.328125 -21.59375 L 2.546875 -21.796875 C 2.054688 -21.921875 1.75 -22.070312 1.625 -22.25 C 1.507812 -22.425781 1.453125 -22.609375 1.453125 -22.796875 C 1.453125 -23.179688 1.535156 -23.476562 1.703125 -23.6875 C 1.941406 -23.601562 2.453125 -23.5625 3.234375 -23.5625 L 9.9375 -23.5625 C 10.46875 -23.5625 10.890625 -23.476562 11.203125 -23.3125 C 11.523438 -23.144531 11.6875 -22.835938 11.6875 -22.390625 C 11.6875 -22.035156 11.609375 -21.769531 11.453125 -21.59375 C 11.066406 -21.695312 10.695312 -21.75 10.34375 -21.75 C 9.988281 -21.75 9.707031 -21.707031 9.5 -21.625 C 9.300781 -21.550781 9.128906 -21.425781 8.984375 -21.25 C 8.671875 -20.851562 8.503906 -20.210938 8.484375 -19.328125 L 8.484375 -3.78125 C 8.503906 -3.0625 8.710938 -2.582031 9.109375 -2.34375 C 9.453125 -2.125 10.070312 -2.015625 10.96875 -2.015625 L 12.125 -2.03125 L 13.453125 -2.046875 C 15.679688 -2.046875 17.140625 -2.539062 17.828125 -3.53125 C 18.171875 -4.03125 18.398438 -4.648438 18.515625 -5.390625 C 18.628906 -6.128906 18.734375 -6.992188 18.828125 -7.984375 C 18.992188 -8.078125 19.21875 -8.125 19.5 -8.125 C 20.019531 -8.125 20.367188 -8.066406 20.546875 -7.953125 C 20.765625 -7.109375 20.875 -6.050781 20.875 -4.78125 Z M 20.875 -4.78125 "/></g></g></g><g fill="#393834" fill-opacity="1"><g transform="translate(242.74175, 198.008359)"><g><path d="M 17.875 0.125 C 17.644531 0.0390625 17.140625 0 16.359375 0 L 7.5625 0 C 7.03125 0 6.601562 -0.0820312 6.28125 -0.25 C 5.957031 -0.414062 5.796875 -0.726562 5.796875 -1.1875 C 5.796875 -1.5 5.878906 -1.757812 6.046875 -1.96875 C 6.429688 -1.863281 6.796875 -1.8125 7.140625 -1.8125 C 7.492188 -1.8125 7.820312 -1.847656 8.125 -1.921875 C 8.4375 -1.992188 8.734375 -2.125 9.015625 -2.3125 C 9.671875 -2.726562 10.015625 -3.367188 10.046875 -4.234375 L 10.046875 -21.328125 L 8.0625 -21.328125 C 6.570312 -21.328125 5.597656 -21.253906 5.140625 -21.109375 C 4.679688 -20.972656 4.335938 -20.796875 4.109375 -20.578125 C 3.878906 -20.367188 3.691406 -20.078125 3.546875 -19.703125 C 3.296875 -19.066406 3.097656 -17.972656 2.953125 -16.421875 C 2.722656 -16.367188 2.519531 -16.34375 2.34375 -16.34375 C 1.925781 -16.34375 1.660156 -16.445312 1.546875 -16.65625 C 1.441406 -16.875 1.367188 -17.097656 1.328125 -17.328125 C 1.285156 -17.554688 1.253906 -17.8125 1.234375 -18.09375 C 1.191406 -18.644531 1.171875 -19.234375 1.171875 -19.859375 C 1.171875 -21.566406 1.300781 -22.65625 1.5625 -23.125 C 1.832031 -23.613281 2.367188 -23.859375 3.171875 -23.859375 C 3.316406 -23.859375 3.539062 -23.84375 3.84375 -23.8125 C 4.144531 -23.78125 4.578125 -23.742188 5.140625 -23.703125 C 6.660156 -23.609375 8.488281 -23.5625 10.625 -23.5625 L 13.21875 -23.5625 C 16.1875 -23.5625 18.171875 -23.609375 19.171875 -23.703125 C 20.179688 -23.804688 20.8125 -23.859375 21.0625 -23.859375 C 21.3125 -23.859375 21.535156 -23.820312 21.734375 -23.75 C 21.941406 -23.675781 22.109375 -23.570312 22.234375 -23.4375 C 22.421875 -23.21875 22.515625 -22.9375 22.515625 -22.59375 C 22.515625 -22.082031 22.5 -21.671875 22.46875 -21.359375 C 22.4375 -21.054688 22.40625 -20.691406 22.375 -20.265625 C 22.34375 -19.847656 22.296875 -19.414062 22.234375 -18.96875 C 22.085938 -17.90625 21.90625 -17.171875 21.6875 -16.765625 C 21.488281 -16.484375 21.242188 -16.34375 20.953125 -16.34375 C 20.660156 -16.34375 20.398438 -16.367188 20.171875 -16.421875 L 20.1875 -17.390625 C 20.1875 -18.296875 20.132812 -19.015625 20.03125 -19.546875 C 19.925781 -20.078125 19.707031 -20.472656 19.375 -20.734375 C 19.050781 -20.992188 18.582031 -21.15625 17.96875 -21.21875 C 17.351562 -21.289062 16.535156 -21.328125 15.515625 -21.328125 L 13.671875 -21.328125 L 13.671875 -3.625 C 13.671875 -2.882812 14.257812 -2.375 15.4375 -2.09375 C 15.71875 -2.03125 15.988281 -1.972656 16.25 -1.921875 C 16.519531 -1.867188 16.773438 -1.8125 17.015625 -1.75 C 17.265625 -1.695312 17.472656 -1.628906 17.640625 -1.546875 C 17.960938 -1.390625 18.125 -1.113281 18.125 -0.71875 C 18.125 -0.363281 18.039062 -0.0820312 17.875 0.125 Z M 17.875 0.125 "/></g></g></g><g fill="#393834" fill-opacity="1"><g transform="translate(269.315805, 198.008359)"><g><path d="M 16.296875 -1.8125 C 16.722656 -1.738281 17.046875 -1.703125 17.265625 -1.703125 C 17.484375 -1.703125 17.695312 -1.722656 17.90625 -1.765625 C 18.113281 -1.816406 18.300781 -1.894531 18.46875 -2 C 18.832031 -2.226562 19.015625 -2.582031 19.015625 -3.0625 C 19.015625 -3.457031 18.890625 -3.898438 18.640625 -4.390625 L 17.203125 -7.984375 L 7.46875 -7.984375 L 5.75 -3.609375 C 5.582031 -3.210938 5.5 -2.921875 5.5 -2.734375 C 5.5 -2.554688 5.523438 -2.425781 5.578125 -2.34375 C 5.640625 -2.257812 5.726562 -2.1875 5.84375 -2.125 C 5.96875 -2.0625 6.113281 -2.007812 6.28125 -1.96875 L 6.921875 -1.796875 C 7.597656 -1.679688 8.03125 -1.578125 8.21875 -1.484375 C 8.625 -1.296875 8.828125 -1.007812 8.828125 -0.625 C 8.828125 -0.351562 8.75 -0.117188 8.59375 0.078125 C 8.394531 0.0234375 8.21875 0 8.0625 0 L 1.796875 0 C 0.429688 0 -0.25 -0.375 -0.25 -1.125 C -0.25 -1.46875 -0.171875 -1.75 -0.015625 -1.96875 C 0.359375 -1.863281 0.675781 -1.8125 0.9375 -1.8125 C 1.207031 -1.8125 1.429688 -1.851562 1.609375 -1.9375 C 1.785156 -2.019531 1.957031 -2.160156 2.125 -2.359375 C 2.394531 -2.691406 2.71875 -3.363281 3.09375 -4.375 L 10.6875 -22.765625 C 10.894531 -23.253906 11.503906 -23.59375 12.515625 -23.78125 C 12.785156 -23.832031 13.078125 -23.859375 13.390625 -23.859375 C 14.015625 -23.859375 14.398438 -23.691406 14.546875 -23.359375 L 16.078125 -19.515625 C 19.035156 -12.523438 20.75 -8.441406 21.21875 -7.265625 L 22.59375 -3.640625 C 22.875 -2.847656 23.101562 -2.359375 23.28125 -2.171875 C 23.46875 -1.992188 23.671875 -1.867188 23.890625 -1.796875 C 24.109375 -1.722656 24.332031 -1.660156 24.5625 -1.609375 C 24.789062 -1.566406 24.992188 -1.507812 25.171875 -1.4375 C 25.554688 -1.269531 25.75 -1.003906 25.75 -0.640625 C 25.75 -0.367188 25.671875 -0.132812 25.515625 0.0625 C 25.328125 0.0078125 25.15625 -0.015625 25 -0.015625 L 17.65625 -0.015625 C 17.132812 -0.015625 16.726562 -0.078125 16.4375 -0.203125 C 16.144531 -0.335938 16 -0.535156 16 -0.796875 C 16 -1.253906 16.097656 -1.59375 16.296875 -1.8125 Z M 16.3125 -10.15625 L 12.28125 -20.125 L 8.328125 -10.15625 Z M 16.3125 -10.15625 "/></g></g></g><g fill="#393834" fill-opacity="1"><g transform="translate(297.949457, 198.008359)"><g><path d="M 3.3125 0 C 1.9375 0 1.25 -0.394531 1.25 -1.1875 C 1.25 -1.539062 1.328125 -1.789062 1.484375 -1.9375 C 1.785156 -1.851562 2.097656 -1.8125 2.421875 -1.8125 C 2.742188 -1.8125 3.023438 -1.851562 3.265625 -1.9375 C 3.503906 -2.019531 3.71875 -2.140625 3.90625 -2.296875 C 4.269531 -2.609375 4.453125 -3.050781 4.453125 -3.625 L 4.453125 -20.375 C 4.429688 -20.78125 4.34375 -21.082031 4.1875 -21.28125 C 4.039062 -21.488281 3.8125 -21.632812 3.5 -21.71875 C 3.195312 -21.8125 2.941406 -21.878906 2.734375 -21.921875 C 2.535156 -21.960938 2.359375 -22.015625 2.203125 -22.078125 C 1.835938 -22.234375 1.65625 -22.421875 1.65625 -22.640625 C 1.65625 -23.117188 1.734375 -23.453125 1.890625 -23.640625 C 2.109375 -23.585938 2.4375 -23.5625 2.875 -23.5625 L 5.875 -23.5625 C 6.769531 -23.5625 7.578125 -23.109375 8.296875 -22.203125 L 21.234375 -5.8125 L 21.234375 -20.15625 C 21.222656 -20.5625 21.132812 -20.898438 20.96875 -21.171875 C 20.8125 -21.453125 20.546875 -21.640625 20.171875 -21.734375 C 19.796875 -21.828125 19.460938 -21.894531 19.171875 -21.9375 C 18.890625 -21.988281 18.640625 -22.054688 18.421875 -22.140625 C 17.929688 -22.304688 17.6875 -22.570312 17.6875 -22.9375 C 17.6875 -23.238281 17.769531 -23.472656 17.9375 -23.640625 C 18.15625 -23.585938 18.484375 -23.5625 18.921875 -23.5625 L 25.125 -23.5625 C 26.5 -23.5625 27.1875 -23.269531 27.1875 -22.6875 C 27.1875 -22.195312 27.109375 -21.863281 26.953125 -21.6875 C 26.691406 -21.757812 26.394531 -21.796875 26.0625 -21.796875 C 25.726562 -21.796875 25.4375 -21.785156 25.1875 -21.765625 C 24.945312 -21.753906 24.726562 -21.691406 24.53125 -21.578125 C 24.101562 -21.347656 23.878906 -20.867188 23.859375 -20.140625 L 23.859375 -0.4375 C 23.859375 -0.132812 23.773438 0.046875 23.609375 0.109375 C 23.453125 0.179688 23.15625 0.21875 22.71875 0.21875 C 21.988281 0.21875 21.210938 -0.320312 20.390625 -1.40625 L 7.09375 -18.125 L 7.09375 -3.40625 C 7.132812 -2.53125 7.546875 -1.988281 8.328125 -1.78125 C 8.628906 -1.71875 8.925781 -1.664062 9.21875 -1.625 C 9.507812 -1.582031 9.769531 -1.53125 10 -1.46875 C 10.519531 -1.34375 10.78125 -1.109375 10.78125 -0.765625 C 10.78125 -0.398438 10.703125 -0.117188 10.546875 0.078125 C 10.328125 0.0234375 10 0 9.5625 0 Z M 3.3125 0 "/></g></g></g></svg>